# xmcd
#
# Track frame offsets: 
#        187
#        11190
#        20722
#        32112
#        42255
#        53267
#        63087
#        74455
#        84847
#        97515
#        106850
#        118537
#        127882
#        140655
#        149785
#        159845
#        170775
#        182765
#
# Disc length: 2549 seconds
#
# Revision: 3
# Processed by: cddbd v1.5.1PL2 Copyright (c) Steve Scherf et al.
# Submitted via: ExactAudioCopy v0.95b4
#
DISCID=eb09f312
DTITLE=Chet Atkins - Tennessee Guitar Man
DYEAR=1900
DGENRE=
TTITLE0=Make The World Go Away
TTITLE1=Oh Baby Mine (I Get So Lonely)
TTITLE2=Release Me (And Let Me Love Again)
TTITLE3=The Bells Of St. Mary's
TTITLE4=April In Portugal
TTITLE5=Hot Mocking Bird
TTITLE6=San Antonio Rose
TTITLE7=Kicky
TTITLE8=Wabash Cannon Ball
TTITLE9=Foggy Mountain Top
TTITLE10=Bandera
TTITLE11=Yankee Doodle Dixie
TTITLE12=Lonesome Road
TTITLE13=Goin' Down The Road (Feelin' Bad)
TTITLE14=Wildwood Flower
TTITLE15=Oklahoma Hills
TTITLE16=Early Times
TTITLE17=Prancin' Filly
EXTD=
EXTT0=
EXTT1=
EXTT2=
EXTT3=
EXTT4=
EXTT5=
EXTT6=
EXTT7=
EXTT8=
EXTT9=
EXTT10=
EXTT11=
EXTT12=
EXTT13=
EXTT14=
EXTT15=
EXTT16=
EXTT17=
PLAYORDER=
